<svg width="4202" height="700" viewBox="0 0 4202 700" fill="none" xmlns="http://www.w3.org/2000/svg">
<g clip-path="url(#clip0_3_74)">
<path d="M1760.81 536.205L1754.01 523.396L1728.4 536.985L1735.19 549.795L1748 543L1760.81 536.205ZM1796.19 664.795C1799.94 671.869 1808.72 674.562 1815.79 670.81C1822.87 667.057 1825.56 658.28 1821.81 651.205L1809 658L1796.19 664.795ZM1748 543L1735.19 549.795L1796.19 664.795L1809 658L1821.81 651.205L1760.81 536.205L1748 543Z" fill="#1A325D"/>
<g clip-path="url(#clip1_3_74)">
<g filter="url(#filter0_d_3_74)">
<path d="M1650.68 39.999C1646.36 39.9757 1643.99 42.9206 1643.33 46.366L1625.49 106.533C1583.03 111.289 1542.79 127.993 1509.44 154.705C1490.92 144.648 1472.4 134.545 1453.86 124.54C1450.43 122.69 1447.42 122.835 1444.64 125.629C1441.86 128.422 1442.65 132.537 1444.22 135.505L1473.92 190.213C1447.07 223.604 1430.28 263.946 1425.5 306.526C1405.24 312.532 1384.96 318.486 1364.74 324.533C1361.01 325.65 1358.99 327.874 1359 331.82C1359.01 335.76 1362.47 338.117 1365.69 339.106L1425.46 356.816C1430.11 399.488 1446.82 439.951 1473.64 473.467C1463.53 492.102 1453.36 510.726 1443.3 529.368C1441.45 532.802 1441.6 535.793 1444.39 538.575C1447.18 541.357 1451.3 540.577 1454.27 539.006L1509.28 509.149C1542.66 535.954 1582.97 552.719 1625.51 557.49C1631.52 577.744 1637.49 598.032 1643.53 618.262C1644.65 621.987 1646.87 624.013 1650.82 624.001C1654.76 623.989 1657.12 620.526 1658.11 617.314L1675.82 557.537C1718.58 552.876 1759.13 536.078 1792.66 509.126L1847.9 539.122C1851.91 541.159 1854.62 541.52 1857.69 538.482C1860.76 535.45 1860.36 531.684 1858.39 528.78L1828.32 473.35C1855.08 439.867 1871.76 399.465 1876.43 356.857L1936.53 339.048C1940.81 337.657 1942.98 335.998 1943 331.68C1943.02 327.361 1940.08 324.993 1936.63 324.329L1876.26 306.433C1871.49 263.937 1854.77 223.666 1828.03 190.295L1857.88 135.313C1859.92 131.309 1860.28 128.597 1857.24 125.524C1853.73 122.468 1850.78 123.388 1847.54 124.831L1792.46 154.74C1758.97 127.853 1718.5 111.087 1675.82 106.417L1658.04 46.4708C1656.65 42.1931 1655 40.0222 1650.68 39.999ZM1650.67 70.4841V297.08C1644.77 297.137 1638.98 298.689 1633.84 301.59L1597.5 255.543L1650.67 70.4841ZM1681.22 124.674C1715.52 129.634 1748.04 143.071 1775.83 163.767L1704.31 202.586L1681.22 124.674ZM1620.07 124.855L1597.12 202.29C1573.45 189.422 1549.78 176.612 1526.11 163.755C1553.74 143.231 1586.02 129.867 1620.07 124.855ZM1465.95 146.941L1579.84 260.612L1579.78 260.786L1536.27 273.684L1465.95 146.941ZM1722.03 260.722L1721.49 260.571L1708.69 217.387L1835.68 147.081L1722.03 260.722ZM1819.05 206.847C1839.69 234.533 1853.12 266.911 1858.15 301.072L1780.41 278.025L1819.05 206.847ZM1482.97 206.905L1521.59 278.043L1443.78 301.102C1448.84 266.94 1462.3 234.571 1482.97 206.905ZM1726.73 278.293L1912.52 331.668H1685.92C1685.86 325.703 1684.28 319.852 1681.32 314.674L1726.73 278.293ZM1616.09 331.668L1616.08 332C1616.08 337.825 1617.54 343.557 1620.32 348.674L1574.35 384.857L1528.79 371.809L1389.13 331.82L1616.09 331.668ZM1858.34 362.212C1853.38 396.478 1839.96 428.969 1819.29 456.746L1780.51 385.276L1858.34 362.212ZM1443.77 362.235L1521.49 385.265C1508.53 409.103 1495.64 432.948 1482.69 456.792C1462.06 428.994 1448.69 396.497 1443.77 362.235ZM1667.85 362.578L1704.06 407.916L1690.9 453.877L1650.82 593.865L1650.67 366.908C1656.82 366.92 1663.2 365.314 1667.85 362.578ZM1765.69 389.665L1836.14 516.919L1721.86 402.655L1765.69 389.665ZM1579.73 403.033L1592.71 446.811L1465.7 517.274L1579.73 403.033ZM1704.37 461.187L1776.06 500.122C1748.2 520.855 1715.61 534.299 1681.23 539.233L1704.37 461.187ZM1597.06 461.495C1604.73 487.417 1612.44 513.299 1620.11 539.215C1585.98 534.165 1553.64 520.718 1525.99 500.082L1597.06 461.495Z" fill="#1A325D"/>
</g>
<mask id="path-3-inside-1_3_74" fill="white">
<path d="M1831.94 298.658C1825.23 262.227 1807.68 228.671 1781.58 202.381L1770.58 213.3C1794.48 237.376 1810.55 268.105 1816.7 301.466L1831.94 298.658Z"/>
</mask>
<path d="M1831.94 298.658C1825.23 262.227 1807.68 228.671 1781.58 202.381L1770.58 213.3C1794.48 237.376 1810.55 268.105 1816.7 301.466L1831.94 298.658Z" stroke="#1A325D" stroke-width="24" mask="url(#path-3-inside-1_3_74)"/>
<mask id="path-4-inside-2_3_74" fill="white">
<path d="M1756.04 180.942C1725.63 159.793 1689.54 148.317 1652.5 148.015L1652.37 163.514C1686.29 163.791 1719.34 174.3 1747.19 193.667L1756.04 180.942Z"/>
</mask>
<path d="M1756.04 180.942C1725.63 159.793 1689.54 148.317 1652.5 148.015L1652.37 163.514C1686.29 163.791 1719.34 174.3 1747.19 193.667L1756.04 180.942Z" stroke="#1A325D" stroke-width="24" mask="url(#path-4-inside-2_3_74)"/>
<mask id="path-5-inside-3_3_74" fill="white">
<path d="M1522.16 200.647C1548.61 174.707 1582.27 157.355 1618.74 150.86L1621.46 166.119C1588.06 172.067 1557.23 187.958 1533.02 211.712L1522.16 200.647Z"/>
</mask>
<path d="M1522.16 200.647C1548.61 174.707 1582.27 157.355 1618.74 150.86L1621.46 166.119C1588.06 172.067 1557.23 187.958 1533.02 211.712L1522.16 200.647Z" stroke="#1A325D" stroke-width="24" mask="url(#path-5-inside-3_3_74)"/>
<mask id="path-6-inside-4_3_74" fill="white">
<path d="M1467.01 330.676C1467.28 293.633 1478.72 257.533 1499.84 227.1L1512.58 235.937C1493.24 263.806 1482.76 296.865 1482.51 330.788L1467.01 330.676Z"/>
</mask>
<path d="M1467.01 330.676C1467.28 293.633 1478.72 257.533 1499.84 227.1L1512.58 235.937C1493.24 263.806 1482.76 296.865 1482.51 330.788L1467.01 330.676Z" stroke="#1A325D" stroke-width="24" mask="url(#path-6-inside-4_3_74)"/>
<mask id="path-7-inside-5_3_74" fill="white">
<path d="M1519.47 460.659C1493.57 434.178 1476.26 400.494 1469.82 364.015L1485.08 361.318C1490.98 394.724 1506.83 425.57 1530.55 449.821L1519.47 460.659Z"/>
</mask>
<path d="M1519.47 460.659C1493.57 434.178 1476.26 400.494 1469.82 364.015L1485.08 361.318C1490.98 394.724 1506.83 425.57 1530.55 449.821L1519.47 460.659Z" stroke="#1A325D" stroke-width="24" mask="url(#path-7-inside-5_3_74)"/>
<mask id="path-8-inside-6_3_74" fill="white">
<path d="M1648.37 515.972C1611.33 515.442 1575.31 503.744 1545.03 482.409L1553.96 469.738C1581.69 489.277 1614.67 499.989 1648.59 500.474L1648.37 515.972Z"/>
</mask>
<path d="M1648.37 515.972C1611.33 515.442 1575.31 503.744 1545.03 482.409L1553.96 469.738C1581.69 489.277 1614.67 499.989 1648.59 500.474L1648.37 515.972Z" stroke="#1A325D" stroke-width="24" mask="url(#path-8-inside-6_3_74)"/>
<mask id="path-9-inside-7_3_74" fill="white">
<path d="M1779.7 463.488C1753.23 489.4 1719.55 506.717 1683.07 513.174L1680.37 497.912C1713.77 491.999 1744.61 476.141 1768.86 452.412L1779.7 463.488Z"/>
</mask>
<path d="M1779.7 463.488C1753.23 489.4 1719.55 506.717 1683.07 513.174L1680.37 497.912C1713.77 491.999 1744.61 476.141 1768.86 452.412L1779.7 463.488Z" stroke="#1A325D" stroke-width="24" mask="url(#path-9-inside-7_3_74)"/>
<mask id="path-10-inside-8_3_74" fill="white">
<path d="M1834.99 332.353C1834.92 369.397 1823.67 405.557 1802.71 436.101L1789.93 427.332C1809.12 399.36 1819.43 366.247 1819.49 332.323L1834.99 332.353Z"/>
</mask>
<path d="M1834.99 332.353C1834.92 369.397 1823.67 405.557 1802.71 436.101L1789.93 427.332C1809.12 399.36 1819.43 366.247 1819.49 332.323L1834.99 332.353Z" stroke="#1A325D" stroke-width="24" mask="url(#path-10-inside-8_3_74)"/>
</g>
<path d="M65.36 558C46.88 558 37.64 548.76 37.64 530.28V138.24C37.64 119.76 46.88 110.52 65.36 110.52H302.3C320.78 110.52 330.02 119.76 330.02 138.24C330.02 156.72 320.78 165.96 302.3 165.96H93.08V304.56H224.42C242.9 304.56 252.14 313.8 252.14 332.28C252.14 350.76 242.9 360 224.42 360H93.08V502.56H302.3C320.78 502.56 330.02 511.8 330.02 530.28C330.02 548.76 320.78 558 302.3 558H65.36ZM463.036 558C444.556 558 435.316 548.76 435.316 530.28V138.24C435.316 119.76 444.556 110.52 463.036 110.52C472.496 110.52 481.736 116.02 490.756 127.02L756.076 468.9H742.216V138.24C742.216 119.76 751.456 110.52 769.936 110.52C788.416 110.52 797.656 119.76 797.656 138.24V530.28C797.656 548.76 788.416 558 769.936 558C760.036 558 750.796 552.5 742.216 541.5L476.896 199.62H490.756V530.28C490.756 548.76 481.516 558 463.036 558ZM1066.83 558C1016.45 558 979.158 546.01 954.958 522.03C930.978 497.83 918.988 460.54 918.988 410.16V258.36C918.988 207.54 930.978 170.14 954.958 146.16C978.938 121.96 1016.01 110.08 1066.17 110.52H1146.03C1187.39 110.52 1218.96 119.1 1240.74 136.26C1262.52 153.2 1275.17 180.04 1278.69 216.78C1280.01 226.02 1278.25 233.06 1273.41 237.9C1268.57 242.74 1261.53 245.16 1252.29 245.16C1235.57 245.16 1225.89 235.92 1223.25 217.44C1221.05 197.2 1214.01 183.56 1202.13 176.52C1190.47 169.48 1171.77 165.96 1146.03 165.96H1066.17C1042.85 165.74 1024.48 168.38 1011.06 173.88C997.858 179.38 988.398 188.95 982.678 202.59C977.178 216.01 974.428 234.6 974.428 258.36V410.16C974.428 433.7 977.178 452.18 982.678 465.6C988.398 479.02 997.968 488.59 1011.39 494.31C1024.81 499.81 1043.29 502.56 1066.83 502.56H1146.03C1171.77 502.56 1190.47 499.04 1202.13 492C1214.01 484.74 1221.05 471.1 1223.25 451.08C1225.89 432.6 1235.57 423.36 1252.29 423.36C1261.53 423.36 1268.57 425.78 1273.41 430.62C1278.25 435.46 1280.01 442.5 1278.69 451.74C1275.17 488.7 1262.52 515.65 1240.74 532.59C1218.96 549.53 1187.39 558 1146.03 558H1066.83ZM2044.72 558C2026.24 558 2017 548.76 2017 530.28V138.24C2017 119.76 2026.24 110.52 2044.72 110.52C2056.82 110.52 2066.94 116.46 2075.08 128.34L2230.84 362.64L2218.96 364.62L2376.04 128.34C2383.52 116.46 2394.74 110.52 2409.7 110.52C2424.66 110.52 2432.14 119.76 2432.14 138.24V530.28C2432.14 548.76 2422.9 558 2404.42 558C2385.94 558 2376.7 548.76 2376.7 530.28V193.68L2393.86 199.62L2255.26 403.56C2247.12 415.44 2235.9 421.38 2221.6 421.38C2211.7 421.38 2202.68 415.44 2194.54 403.56L2055.94 199.62L2072.44 204.24V530.28C2072.44 548.76 2063.2 558 2044.72 558ZM2597.08 558C2578.6 558 2569.36 548.76 2569.36 530.28V138.24C2569.36 119.76 2578.6 110.52 2597.08 110.52H2751.52C2791.78 110.52 2822.58 121.3 2843.92 142.86C2865.48 164.2 2876.26 195 2876.26 235.26V255.06C2876.26 295.32 2865.48 326.23 2843.92 347.79C2822.58 369.13 2791.78 379.8 2751.52 379.8H2624.8V530.28C2624.8 548.76 2615.56 558 2597.08 558ZM2624.8 324.36H2751.52C2776.6 324.36 2794.42 319.08 2804.98 308.52C2815.54 297.96 2820.82 280.14 2820.82 255.06V235.26C2820.82 210.4 2815.54 192.69 2804.98 182.13C2794.42 171.35 2776.6 165.96 2751.52 165.96H2624.8V324.36ZM2913.69 555.36C2896.09 548.54 2890.81 536.44 2897.85 519.06L3054.93 132.3C3061.53 117.78 3071.87 110.52 3085.95 110.52H3087.27C3101.57 111.18 3111.25 118.44 3116.31 132.3L3276.03 519.06C3283.07 536.44 3278.01 548.54 3260.85 555.36C3243.47 562.18 3231.37 557.12 3224.55 540.18L3188.91 453.72H2983.32L2949.33 540.18C2942.51 557.34 2930.63 562.4 2913.69 555.36ZM3005.1 398.28H3166.14L3083.97 198.3L3005.1 398.28ZM3466.27 558C3428.65 558 3399.28 550.41 3378.16 535.23C3357.26 520.05 3344.17 496.62 3338.89 464.94C3338.01 455.26 3339.99 448 3344.83 443.16C3349.67 438.32 3356.71 435.9 3365.95 435.9C3375.19 435.9 3381.9 438.1 3386.08 442.5C3390.48 446.9 3393.45 453.72 3394.99 462.96C3398.29 478.14 3405.33 488.59 3416.11 494.31C3427.11 499.81 3443.83 502.56 3466.27 502.56H3561.31C3589.69 502.56 3608.94 497.5 3619.06 487.38C3629.4 477.04 3634.57 457.9 3634.57 429.96C3634.57 401.58 3629.29 382.22 3618.73 371.88C3608.17 361.32 3589.03 356.04 3561.31 356.04H3479.47C3437.89 356.04 3406.98 345.92 3386.74 325.68C3366.72 305.22 3356.71 274.2 3356.71 232.62C3356.71 191.26 3366.61 160.57 3386.41 140.55C3406.43 120.53 3437.23 110.52 3478.81 110.52H3557.35C3592.33 110.52 3619.72 117.67 3639.52 131.97C3659.54 146.27 3672.19 168.16 3677.47 197.64C3678.79 207.1 3677.03 214.36 3672.19 219.42C3667.35 224.26 3660.09 226.68 3650.41 226.68C3641.61 226.68 3635.01 224.37 3630.61 219.75C3626.21 215.13 3623.35 208.42 3622.03 199.62C3618.51 186.64 3611.8 177.84 3601.9 173.22C3592 168.38 3577.15 165.96 3557.35 165.96H3478.81C3452.41 165.96 3434.7 170.69 3425.68 180.15C3416.66 189.39 3412.15 206.88 3412.15 232.62C3412.15 258.58 3416.77 276.4 3426.01 286.08C3435.25 295.76 3453.07 300.6 3479.47 300.6H3561.31C3604.65 300.6 3636.88 311.16 3658 332.28C3679.34 353.4 3690.01 385.96 3690.01 429.96C3690.01 473.74 3679.45 506.08 3658.33 526.98C3637.21 547.66 3604.87 558 3561.31 558H3466.27ZM3923.24 558C3885.62 558 3856.25 550.41 3835.13 535.23C3814.23 520.05 3801.14 496.62 3795.86 464.94C3794.98 455.26 3796.96 448 3801.8 443.16C3806.64 438.32 3813.68 435.9 3822.92 435.9C3832.16 435.9 3838.87 438.1 3843.05 442.5C3847.45 446.9 3850.42 453.72 3851.96 462.96C3855.26 478.14 3862.3 488.59 3873.08 494.31C3884.08 499.81 3900.8 502.56 3923.24 502.56H4018.28C4046.66 502.56 4065.91 497.5 4076.03 487.38C4086.37 477.04 4091.54 457.9 4091.54 429.96C4091.54 401.58 4086.26 382.22 4075.7 371.88C4065.14 361.32 4046 356.04 4018.28 356.04H3936.44C3894.86 356.04 3863.95 345.92 3843.71 325.68C3823.69 305.22 3813.68 274.2 3813.68 232.62C3813.68 191.26 3823.58 160.57 3843.38 140.55C3863.4 120.53 3894.2 110.52 3935.78 110.52H4014.32C4049.3 110.52 4076.69 117.67 4096.49 131.97C4116.51 146.27 4129.16 168.16 4134.44 197.64C4135.76 207.1 4134 214.36 4129.16 219.42C4124.32 224.26 4117.06 226.68 4107.38 226.68C4098.58 226.68 4091.98 224.37 4087.58 219.75C4083.18 215.13 4080.32 208.42 4079 199.62C4075.48 186.64 4068.77 177.84 4058.87 173.22C4048.97 168.38 4034.12 165.96 4014.32 165.96H3935.78C3909.38 165.96 3891.67 170.69 3882.65 180.15C3873.63 189.39 3869.12 206.88 3869.12 232.62C3869.12 258.58 3873.74 276.4 3882.98 286.08C3892.22 295.76 3910.04 300.6 3936.44 300.6H4018.28C4061.62 300.6 4093.85 311.16 4114.97 332.28C4136.31 353.4 4146.98 385.96 4146.98 429.96C4146.98 473.74 4136.42 506.08 4115.3 526.98C4094.18 547.66 4061.84 558 4018.28 558H3923.24Z" fill="#1A325D"/>
</g>
<defs>
<filter id="filter0_d_3_74" x="1355" y="39.9988" width="591.996" height="592.002" filterUnits="userSpaceOnUse" color-interpolation-filters="sRGB">
<feFlood flood-opacity="0" result="BackgroundImageFix"/>
<feColorMatrix in="SourceAlpha" type="matrix" values="0 0 0 0 0 0 0 0 0 0 0 0 0 0 0 0 0 0 127 0" result="hardAlpha"/>
<feOffset dy="4"/>
<feGaussianBlur stdDeviation="2"/>
<feComposite in2="hardAlpha" operator="out"/>
<feColorMatrix type="matrix" values="0 0 0 0 0 0 0 0 0 0 0 0 0 0 0 0 0 0 0.25 0"/>
<feBlend mode="normal" in2="BackgroundImageFix" result="effect1_dropShadow_3_74"/>
<feBlend mode="normal" in="SourceGraphic" in2="effect1_dropShadow_3_74" result="shape"/>
</filter>
<clipPath id="clip0_3_74">
<rect width="4202" height="700" fill="white"/>
</clipPath>
<clipPath id="clip1_3_74">
<rect width="582" height="582" fill="white" transform="translate(1360 41)"/>
</clipPath>
</defs>
</svg>
