<svg width="4202" height="700" viewBox="0 0 4202 700" fill="none" xmlns="http://www.w3.org/2000/svg">
<g clip-path="url(#clip0_15_590)">
<path d="M6.53125 580V121.818H336.744V222.045H130.92V300.795H319.741V401.023H130.92V479.773H335.849V580H6.53125ZM794.87 121.818V580H691.063L525.509 339.276H522.825V580H398.436V121.818H504.032L666.901 361.648H670.481V121.818H794.87ZM1281.46 293.636H1155.29C1154.39 283.196 1152 273.725 1148.13 265.224C1144.4 256.722 1139.18 249.414 1132.47 243.299C1125.9 237.035 1117.92 232.262 1108.53 228.981C1099.13 225.55 1088.47 223.835 1076.54 223.835C1055.66 223.835 1037.98 228.906 1023.51 239.048C1009.2 249.19 998.308 263.732 990.85 282.674C983.542 301.616 979.888 324.361 979.888 350.909C979.888 378.949 983.617 402.44 991.074 421.381C998.681 440.174 1009.64 454.343 1023.96 463.888C1038.28 473.285 1055.51 477.983 1075.64 477.983C1087.13 477.983 1097.42 476.566 1106.51 473.732C1115.61 470.749 1123.52 466.499 1130.23 460.98C1136.94 455.462 1142.38 448.825 1146.56 441.069C1150.89 433.164 1153.79 424.29 1155.29 414.446L1281.46 415.341C1279.97 434.73 1274.53 454.492 1265.13 474.627C1255.74 494.613 1242.39 513.107 1225.09 530.11C1207.93 546.964 1186.68 560.536 1161.33 570.827C1135.97 581.119 1106.51 586.264 1072.96 586.264C1030.9 586.264 993.162 577.241 959.753 559.194C926.493 541.147 900.169 514.599 880.779 479.549C861.539 444.499 851.919 401.619 851.919 350.909C851.919 299.901 861.763 256.946 881.45 222.045C901.138 186.996 927.686 160.522 961.095 142.624C994.504 124.577 1031.79 115.554 1072.96 115.554C1101.89 115.554 1128.51 119.506 1152.82 127.411C1177.14 135.316 1198.46 146.875 1216.81 162.088C1235.15 177.152 1249.92 195.721 1261.11 217.795C1272.29 239.869 1279.08 265.149 1281.46 293.636ZM1965.44 121.818H2120.25L2226.74 381.335H2232.11L2338.61 121.818H2493.42V580H2371.72V315.114H2368.14L2266.12 576.42H2192.74L2090.72 313.324H2087.14V580H1965.44V121.818ZM2552.37 580V121.818H2750.14C2784.15 121.818 2813.9 128.53 2839.41 141.953C2864.91 155.376 2884.75 174.244 2898.92 198.555C2913.08 222.866 2920.17 251.278 2920.17 283.793C2920.17 316.605 2912.86 345.018 2898.24 369.031C2883.78 393.043 2863.42 411.538 2837.17 424.513C2811.07 437.489 2780.57 443.977 2745.67 443.977H2627.54V347.33H2720.61C2735.23 347.33 2747.68 344.794 2757.97 339.723C2768.41 334.503 2776.39 327.12 2781.91 317.575C2787.58 308.029 2790.41 296.768 2790.41 283.793C2790.41 270.668 2787.58 259.482 2781.91 250.234C2776.39 240.838 2768.41 233.679 2757.97 228.757C2747.68 223.686 2735.23 221.151 2720.61 221.151H2676.76V580H2552.37ZM3027.61 580H2893.38L3044.61 121.818H3214.64L3365.88 580H3231.65L3131.42 247.997H3127.84L3027.61 580ZM3002.55 399.233H3254.91V492.301H3002.55V399.233ZM3639.15 265C3637.96 250.085 3632.37 238.452 3622.38 230.099C3612.53 221.747 3597.54 217.571 3577.41 217.571C3564.58 217.571 3554.07 219.137 3545.86 222.269C3537.81 225.252 3531.84 229.354 3527.97 234.574C3524.09 239.794 3522.07 245.76 3521.92 252.472C3521.63 257.99 3522.6 262.986 3524.83 267.461C3527.22 271.786 3530.95 275.739 3536.02 279.318C3541.09 282.749 3547.58 285.881 3555.48 288.714C3563.39 291.548 3572.78 294.084 3583.67 296.321L3621.26 304.375C3646.61 309.744 3668.31 316.829 3686.36 325.629C3704.41 334.428 3719.17 344.794 3730.66 356.726C3742.14 368.509 3750.57 381.783 3755.94 396.548C3761.46 411.314 3764.29 427.422 3764.44 444.872C3764.29 475 3756.76 500.504 3741.84 521.385C3726.93 542.266 3705.6 558.15 3677.86 569.038C3650.27 579.925 3617.08 585.369 3578.3 585.369C3538.48 585.369 3503.73 579.478 3474.05 567.695C3444.52 555.913 3421.55 537.791 3405.14 513.331C3388.88 488.722 3380.68 457.251 3380.53 418.92H3498.66C3499.4 432.94 3502.91 444.723 3509.17 454.268C3515.44 463.814 3524.24 471.048 3535.57 475.969C3547.06 480.891 3560.7 483.352 3576.51 483.352C3589.79 483.352 3600.9 481.712 3609.85 478.43C3618.8 475.149 3625.58 470.6 3630.21 464.783C3634.83 458.967 3637.22 452.33 3637.36 444.872C3637.22 437.862 3634.9 431.747 3630.43 426.527C3626.1 421.158 3618.95 416.385 3608.95 412.209C3598.96 407.884 3585.46 403.857 3568.46 400.128L3522.82 390.284C3482.25 381.484 3450.26 366.793 3426.84 346.211C3403.58 325.479 3392.02 297.216 3392.17 261.42C3392.02 232.337 3399.77 206.907 3415.43 185.131C3431.24 163.207 3453.09 146.129 3480.98 133.899C3509.02 121.669 3541.16 115.554 3577.41 115.554C3614.4 115.554 3646.39 121.744 3673.38 134.123C3700.38 146.502 3721.19 163.952 3735.8 186.474C3750.57 208.846 3758.03 235.021 3758.17 265H3639.15ZM4058.74 265C4057.55 250.085 4051.96 238.452 4041.97 230.099C4032.12 221.747 4017.13 217.571 3997 217.571C3984.17 217.571 3973.66 219.137 3965.45 222.269C3957.4 225.252 3951.43 229.354 3947.55 234.574C3943.68 239.794 3941.66 245.76 3941.51 252.472C3941.22 257.99 3942.19 262.986 3944.42 267.461C3946.81 271.786 3950.54 275.739 3955.61 279.318C3960.68 282.749 3967.17 285.881 3975.07 288.714C3982.98 291.548 3992.37 294.084 4003.26 296.321L4040.85 304.375C4066.2 309.744 4087.9 316.829 4105.95 325.629C4124 334.428 4138.76 344.794 4150.25 356.726C4161.73 368.509 4170.16 381.783 4175.53 396.548C4181.05 411.314 4183.88 427.422 4184.03 444.872C4183.88 475 4176.35 500.504 4161.43 521.385C4146.52 542.266 4125.19 558.15 4097.45 569.038C4069.86 579.925 4036.67 585.369 3997.89 585.369C3958.07 585.369 3923.32 579.478 3893.64 567.695C3864.11 555.913 3841.14 537.791 3824.73 513.331C3808.47 488.722 3800.27 457.251 3800.12 418.92H3918.25C3918.99 432.94 3922.5 444.723 3928.76 454.268C3935.03 463.814 3943.83 471.048 3955.16 475.969C3966.65 480.891 3980.29 483.352 3996.1 483.352C4009.38 483.352 4020.49 481.712 4029.44 478.43C4038.39 475.149 4045.17 470.6 4049.8 464.783C4054.42 458.967 4056.81 452.33 4056.95 444.872C4056.81 437.862 4054.49 431.747 4050.02 426.527C4045.69 421.158 4038.53 416.385 4028.54 412.209C4018.55 407.884 4005.05 403.857 3988.05 400.128L3942.41 390.284C3901.84 381.484 3869.85 366.793 3846.43 346.211C3823.17 325.479 3811.61 297.216 3811.76 261.42C3811.61 232.337 3819.36 206.907 3835.02 185.131C3850.83 163.207 3872.68 146.129 3900.57 133.899C3928.61 121.669 3960.75 115.554 3997 115.554C4033.99 115.554 4065.98 121.744 4092.97 134.123C4119.97 146.502 4140.78 163.952 4155.39 186.474C4170.16 208.846 4177.62 235.021 4177.76 265H4058.74Z" fill="#1A325D"/>
<path d="M1615.92 52.3097C1616.05 51.1179 1617.79 51.1179 1617.91 52.3096L1646.22 317.375C1646.29 317.966 1645.82 318.481 1645.23 318.481H1588.61C1588.01 318.481 1587.55 317.966 1587.61 317.375L1615.92 52.3097Z" fill="#1A325D"/>
<path d="M1912.51 349.159C1913.71 349.287 1913.71 351.021 1912.51 351.148L1647.45 379.459C1646.86 379.522 1646.34 379.059 1646.34 378.465V321.842C1646.34 321.248 1646.86 320.785 1647.45 320.848L1912.51 349.159Z" fill="#1A325D"/>
<path d="M1617.9 647.997C1617.77 649.189 1616.04 649.189 1615.91 647.997L1587.6 382.932C1587.54 382.341 1588 381.826 1588.59 381.826H1645.22C1645.81 381.826 1646.27 382.341 1646.21 382.932L1617.9 647.997Z" fill="#1A325D"/>
<path d="M1321.31 351.148C1320.12 351.021 1320.12 349.286 1321.31 349.159L1586.38 320.848C1586.97 320.785 1587.48 321.248 1587.48 321.842V378.465C1587.48 379.059 1586.97 379.522 1586.38 379.459L1321.31 351.148Z" fill="#1A325D"/>
<path d="M1516.16 251.706C1515.41 250.777 1516.62 249.556 1517.56 250.297L1614.89 327.538C1615.36 327.909 1615.4 328.604 1614.98 329.027L1595.41 348.701C1594.99 349.124 1594.29 349.087 1593.92 348.622L1516.16 251.706Z" fill="#1A325D"/>
<path d="M1713.75 250.631C1714.68 249.876 1715.91 251.099 1715.16 252.033L1637.72 348.513C1637.35 348.976 1636.66 349.015 1636.24 348.596L1617.62 330.076C1617.2 329.657 1617.23 328.965 1617.69 328.591L1713.75 250.631Z" fill="#1A325D"/>
<path d="M1716.56 448.226C1717.3 449.155 1716.09 450.376 1715.15 449.635L1617.82 372.394C1617.35 372.023 1617.31 371.328 1617.73 370.905L1637.3 351.231C1637.72 350.808 1638.42 350.845 1638.79 351.31L1716.56 448.226Z" fill="#1A325D"/>
<path d="M1518.96 449.302C1518.03 450.057 1516.8 448.834 1517.55 447.899L1594.99 351.42C1595.36 350.957 1596.05 350.918 1596.47 351.337L1615.09 369.857C1615.51 370.276 1615.48 370.968 1615.02 371.342L1518.96 449.302Z" fill="#1A325D"/>
<rect x="1583.6" y="315.883" width="66.6193" height="67.9005" fill="#1A325D"/>
<circle cx="1617.55" cy="349.833" r="230.152" stroke="#1A325D" stroke-width="15"/>
<line x1="1555.38" y1="155.726" x2="1561.55" y2="174.283" stroke="#1A325D" stroke-width="4" stroke-linecap="round"/>
<line x1="1472.1" y1="206.129" x2="1485.12" y2="220.711" stroke="#1A325D" stroke-width="4" stroke-linecap="round"/>
<line x1="1422.11" y1="290.212" x2="1440.82" y2="295.917" stroke="#1A325D" stroke-width="4" stroke-linecap="round"/>
<line x1="2" y1="-2" x2="21.5535" y2="-2" transform="matrix(0.315264 -0.949004 -0.949004 -0.315264 1552.85 545.673)" stroke="#1A325D" stroke-width="4" stroke-linecap="round"/>
<line x1="2" y1="-2" x2="21.5535" y2="-2" transform="matrix(0.666232 -0.745744 -0.745744 -0.666232 1469.27 494.163)" stroke="#1A325D" stroke-width="4" stroke-linecap="round"/>
<line x1="2" y1="-2" x2="21.5535" y2="-2" transform="matrix(0.956495 -0.291747 -0.291747 -0.956495 1419.62 408.591)" stroke="#1A325D" stroke-width="4" stroke-linecap="round"/>
<line x1="2" y1="-2" x2="21.5535" y2="-2" transform="matrix(-0.315264 0.949004 0.949004 0.315264 1683.27 154.459)" stroke="#1A325D" stroke-width="4" stroke-linecap="round"/>
<line x1="2" y1="-2" x2="21.5535" y2="-2" transform="matrix(-0.666232 0.745744 0.745744 0.666232 1766.85 205.97)" stroke="#1A325D" stroke-width="4" stroke-linecap="round"/>
<line x1="2" y1="-2" x2="21.5535" y2="-2" transform="matrix(-0.956495 0.291747 0.291747 0.956495 1816.51 291.542)" stroke="#1A325D" stroke-width="4" stroke-linecap="round"/>
<line x1="1680.74" y1="544.406" x2="1674.58" y2="525.85" stroke="#1A325D" stroke-width="4" stroke-linecap="round"/>
<line x1="1764.03" y1="494.004" x2="1751" y2="479.422" stroke="#1A325D" stroke-width="4" stroke-linecap="round"/>
<line x1="1814.01" y1="409.921" x2="1795.31" y2="404.216" stroke="#1A325D" stroke-width="4" stroke-linecap="round"/>
</g>
<defs>
<clipPath id="clip0_15_590">
<rect width="4202" height="700" fill="white"/>
</clipPath>
</defs>
</svg>
